<?xml version='1.0' encoding='iso-8859-1'?>
<svg version="1.1" xmlns="http://www.w3.org/2000/svg" viewBox="0 0 42 42" xmlns:xlink="http://www.w3.org/1999/xlink" enable-background="new 0 0 42 42">
  <g>
    <g>
      <g>
        <path fill="rgb(219, 218, 218)" fill-rule="evenodd" d="m.004,11.797l-.004-.009 .004,.009zm41.98,6.983l-1.258-2.44c-16.747,5.545-23.327-13.135-40.722-4.543l1.25,2.422c17.069-7.589 21.053,11.75 40.73,4.561zm-.001,6.041l.017,.033-.017-.033zm-41.979-6.979l1.25,2.42c17.069-7.586 21.053,11.749 40.729,4.559l-1.257-2.434c-16.747,5.541-23.327-13.139-40.722-4.545zm0,6.043l1.25,2.422c17.069-7.588 21.053,11.75 40.73,4.561l-1.258-2.436c-16.747,5.541-23.327-13.139-40.722-4.547z"/>
      </g>
    </g>
  </g>
</svg>
