<?xml version="1.0" ?><!DOCTYPE svg  PUBLIC '-//W3C//DTD SVG 1.1//EN'  'http://www.w3.org/Graphics/SVG/1.1/DTD/svg11.dtd'><svg enable-background="new -281.85 -2.67 1024 1024" height="1024px" version="1.1" viewBox="-281.85 -2.67 1024 1024" width="1024px" xml:space="preserve" xmlns="http://www.w3.org/2000/svg" xmlns:xlink="http://www.w3.org/1999/xlink"><defs/><path d="M504.682,259.996c0,2.025-1.642,3.667-3.667,3.667l0,0c-2.025,0-3.666-1.642-3.666-3.667v-57.999  c0-2.025,1.641-3.667,3.666-3.667l0,0c2.025,0,3.667,1.642,3.667,3.667V259.996z" fill="rgb(249, 149, 104)"/><path d="M502.35,73v872.66c0,37.56-30.45,68-68,68H75.68  c-37.55,0-68-30.44-68-68V343.81c-0.55-0.18-1.04-0.49-1.44-0.89c-0.66-0.66-1.07-1.58-1.07-2.59v-58c0-1.63,1.05-3,2.51-3.49  v-15.36c-0.55-0.19-1.04-0.49-1.44-0.89c-0.66-0.66-1.07-1.58-1.07-2.59v-58c0-1.63,1.05-3,2.51-3.49v-38.45  C6.15,159.7,5,158.32,5,156.66v-30c0-0.97,0.39-1.84,1.03-2.47c0.45-0.45,1.01-0.78,1.65-0.93V73c0-37.56,30.45-68,68-68h358.67  C471.9,5,502.35,35.44,502.35,73z" fill="none" stroke="rgb(249, 149, 104)" stroke-miterlimit="10" stroke-width="10"/><rect fill="none" height="777" stroke="rgb(249, 149, 104)" stroke-miterlimit="10" stroke-width="10" width="438" x="36.015" y="120.496"/><circle cx="255.015" cy="37.746" fill="none" r="5" stroke="rgb(249, 149, 104)" stroke-miterlimit="10" stroke-width="10"/><circle cx="186.167" cy="65.746" fill="none" r="7.5" stroke="rgb(249, 149, 104)" stroke-miterlimit="10" stroke-width="10"/><path d="M289.265,65.996c0,2.347-1.903,4.25-4.25,4.25h-60  c-2.347,0-4.25-1.903-4.25-4.25l0,0c0-2.347,1.903-4.25,4.25-4.25h60C287.362,61.746,289.265,63.649,289.265,65.996L289.265,65.996z  " fill="rgb(249, 149, 104)" stroke="rgb(249, 149, 104)" stroke-miterlimit="10" stroke-width="10"/><ellipse cx="255.015" cy="952.496" fill="none" rx="31.5" ry="32" stroke="rgb(249, 149, 104)" stroke-miterlimit="10" stroke-width="10"/><ellipse cx="193.667" cy="58.496" fill="none" rx="0" ry="0.25" stroke="rgb(249, 149, 104)" stroke-miterlimit="10" stroke-width="10"/></svg>