<?xml version="1.0" ?><svg id="Outline" viewBox="0 0 512 512" xmlns="http://www.w3.org/2000/svg"><defs><style>.cls-1{fill:rgb(150, 148, 148);}</style></defs><path class="cls-1" d="M109,216.94A40.06,40.06,0,1,0,149.06,257,40.1,40.1,0,0,0,109,216.94Zm0,57.44A17.38,17.38,0,1,1,126.38,257,17.4,17.4,0,0,1,109,274.38Z"/><path class="cls-1" d="M109,86.52a40.06,40.06,0,1,0,40.06,40.06A40.1,40.1,0,0,0,109,86.52ZM109,144a17.38,17.38,0,1,1,17.38-17.38A17.4,17.4,0,0,1,109,144Z"/><path class="cls-1" d="M109,346.88a40.06,40.06,0,1,0,40.06,40.06A40.1,40.1,0,0,0,109,346.88Zm0,57.44a17.38,17.38,0,1,1,17.38-17.38A17.4,17.4,0,0,1,109,404.32Z"/><path class="cls-1" d="M414.82,86.52H200.15A29.14,29.14,0,0,0,171,115.63v21.89a29.15,29.15,0,0,0,29.11,29.12H414.82a29.15,29.15,0,0,0,29.12-29.12V115.63A29.15,29.15,0,0,0,414.82,86.52Zm6.44,51a6.45,6.45,0,0,1-6.44,6.44H200.15a6.45,6.45,0,0,1-6.44-6.44V115.63a6.44,6.44,0,0,1,6.44-6.43H414.82a6.44,6.44,0,0,1,6.44,6.43Z"/><path class="cls-1" d="M414.82,216.94H200.15A29.14,29.14,0,0,0,171,246.05V268a29.14,29.14,0,0,0,29.11,29.11H414.82A29.15,29.15,0,0,0,443.94,268v-21.9A29.15,29.15,0,0,0,414.82,216.94Zm6.44,51a6.45,6.45,0,0,1-6.44,6.43H200.15a6.45,6.45,0,0,1-6.44-6.43v-21.9a6.45,6.45,0,0,1,6.44-6.43H414.82a6.45,6.45,0,0,1,6.44,6.43Z"/><path class="cls-1" d="M414.82,346.88H200.15A29.14,29.14,0,0,0,171,376v21.89A29.15,29.15,0,0,0,200.15,427H414.82a29.15,29.15,0,0,0,29.12-29.12V376A29.15,29.15,0,0,0,414.82,346.88Zm6.44,51a6.45,6.45,0,0,1-6.44,6.44H200.15a6.45,6.45,0,0,1-6.44-6.44V376a6.44,6.44,0,0,1,6.44-6.43H414.82a6.44,6.44,0,0,1,6.44,6.43Z"/></svg>