<?xml version="1.0" ?><svg id="Layer_1" style="enable-background:new 0 0 750 750;" version="1.1" viewBox="0 0 750 750" xml:space="preserve" xmlns="http://www.w3.org/2000/svg" xmlns:xlink="http://www.w3.org/1999/xlink"><style type="text/css">
	.st0{fill:rgb(150, 148, 148);}
</style><g><path class="st0" d="M620.5,82.8H129.5c-46,0-83.5,37.4-83.5,83.5v315.1c0,46,37.4,83.5,83.5,83.5h347.2c4.8,0,9.3,1.9,12.6,5.2   l89.9,89.9c4.8,4.8,11.2,7.4,17.7,7.4c3.2,0,6.5-0.6,9.6-1.9c9.4-3.9,15.5-13,15.5-23.2v-77.4c45.4-0.8,82-37.9,82-83.5V166.2   C704,120.2,666.6,82.8,620.5,82.8z M679,481.3c0,32.2-26.2,58.5-58.5,58.5c-13,0-23.5,10.6-23.5,23.5v78.8c0,0,0,0,0,0   c0,0-0.1,0-0.1,0c0,0,0,0,0,0L507,552.3c-8.1-8.1-18.9-12.6-30.3-12.6H129.5c-32.2,0-58.5-26.2-58.5-58.5V166.2   c0-32.2,26.2-58.5,58.5-58.5h491.1c32.2,0,58.5,26.2,58.5,58.5V481.3z"/><path class="st0" d="M605.5,203.8h-461c-6.9,0-12.5,5.6-12.5,12.5s5.6,12.5,12.5,12.5h461c6.9,0,12.5-5.6,12.5-12.5   S612.4,203.8,605.5,203.8z"/><path class="st0" d="M605.5,273.8h-461c-6.9,0-12.5,5.6-12.5,12.5s5.6,12.5,12.5,12.5h461c6.9,0,12.5-5.6,12.5-12.5   S612.4,273.8,605.5,273.8z"/><path class="st0" d="M605.5,343.8h-461c-6.9,0-12.5,5.6-12.5,12.5s5.6,12.5,12.5,12.5h461c6.9,0,12.5-5.6,12.5-12.5   S612.4,343.8,605.5,343.8z"/><path class="st0" d="M422,418.8H144.5c-6.9,0-12.5,5.6-12.5,12.5s5.6,12.5,12.5,12.5H422c6.9,0,12.5-5.6,12.5-12.5   S428.9,418.8,422,418.8z"/></g></svg>